<?xml version="1.0" standalone="no"?>
<!DOCTYPE svg PUBLIC "-//W3C//DTD SVG 20010904//EN"
 "http://www.w3.org/TR/2001/REC-SVG-20010904/DTD/svg10.dtd">
<svg version="1.0" xmlns="http://www.w3.org/2000/svg"
 width="700.000000pt" height="700.000000pt" viewBox="0 0 700.000000 700.000000"
 preserveAspectRatio="xMidYMid meet">

<g transform="translate(0.000000,700.000000) scale(0.100000,-0.100000)"
fill="#000000" stroke="none">
<path d="M3922 3990 c-60 -13 -139 -58 -173 -100 -49 -58 -69 -128 -69 -235 0
-156 48 -248 158 -302 51 -25 67 -28 162 -28 109 0 107 -1 233 63 4 2 12 -10
18 -27 10 -29 14 -31 65 -31 l54 0 0 185 0 185 -175 0 -175 0 0 -65 0 -65 70
0 c62 0 70 -2 70 -19 0 -60 -117 -92 -197 -54 -47 22 -72 78 -73 160 0 123 49
183 150 183 61 0 104 -22 121 -62 l11 -28 99 0 c96 0 99 1 99 23 0 38 -46 123
-82 150 -65 50 -123 69 -227 73 -53 2 -115 -1 -139 -6z"/>
<path d="M100 3660 l0 -331 103 3 102 3 3 123 3 122 114 0 114 0 3 -122 3
-123 103 -3 102 -3 0 331 0 330 -105 0 -105 0 0 -120 0 -120 -115 0 -115 0 0
120 0 120 -105 0 -105 0 0 -330z"/>
<path d="M1176 3981 c-9 -14 -236 -633 -236 -643 0 -5 48 -7 107 -6 l107 3 9
35 c15 58 20 60 133 60 l104 0 14 -32 c8 -18 17 -41 20 -50 5 -16 19 -18 110
-18 58 0 107 3 109 8 3 4 -48 151 -113 327 l-118 320 -120 3 c-68 1 -123 -2
-126 -7z m154 -287 c16 -54 30 -105 30 -111 0 -9 -20 -13 -65 -13 -73 0 -74 2
-51 72 8 24 22 69 31 102 9 32 18 56 21 54 2 -3 17 -49 34 -104z"/>
<path d="M1850 3660 l0 -330 105 0 105 0 0 120 0 120 39 0 39 0 58 -120 58
-120 118 0 c112 0 129 4 109 26 -5 5 -37 63 -71 129 -57 108 -61 120 -45 130
93 55 130 157 90 252 -22 52 -42 72 -100 99 -48 23 -60 24 -277 24 l-228 0 0
-330z m385 166 c25 -18 25 -74 0 -92 -12 -9 -47 -14 -97 -14 l-78 0 0 60 0 60
78 0 c50 0 85 -5 97 -14z"/>
<path d="M2682 3663 l3 -328 95 0 95 0 -2 195 c-1 107 1 188 5 180 3 -8 29
-96 57 -195 l51 -180 81 -3 c71 -2 82 -1 87 15 3 10 28 101 56 203 28 101 52
185 53 186 1 1 0 -90 -2 -202 l-3 -204 106 0 106 0 0 330 0 330 -144 0 -143 0
-16 -57 c-8 -32 -30 -115 -48 -185 -18 -70 -36 -124 -40 -120 -3 4 -21 63 -39
132 -18 69 -39 149 -47 178 l-14 52 -150 0 -149 0 2 -327z"/>
<path d="M4605 3977 c-3 -7 -4 -154 -3 -327 l3 -315 288 -3 287 -2 0 80 0 80
-180 0 -180 0 0 50 0 50 150 0 150 0 0 75 0 75 -150 0 -150 0 0 45 0 45 173 2
172 3 3 78 3 77 -281 0 c-216 0 -282 -3 -285 -13z"/>
<path d="M5402 3663 l3 -328 102 -3 102 -3 3 118 3 118 40 2 40 3 57 -120 57
-120 116 0 c63 0 115 3 115 6 0 4 -32 67 -71 140 -39 74 -66 134 -60 134 17 0
81 61 98 93 8 17 15 55 15 87 0 32 -7 70 -15 87 -22 43 -80 90 -124 102 -21 6
-136 11 -261 11 l-222 0 2 -327z m390 160 c23 -21 23 -65 -1 -87 -15 -13 -34
-16 -97 -14 l-79 3 -3 44 c-5 69 -2 71 84 71 58 0 82 -4 96 -17z"/>
<path d="M6250 3660 l0 -330 95 0 95 0 0 156 c0 86 4 154 9 152 4 -1 68 -72
141 -155 l133 -153 89 0 88 0 0 330 0 330 -95 0 -95 0 0 -155 c0 -85 -3 -155
-7 -154 -5 0 -66 69 -138 154 l-130 155 -92 0 -93 0 0 -330z"/>
</g>
</svg>
